Coordinates
version=1
nRows=17
nColumns=24
inDegrees=yes

Units are S.I. units (second, meters, Newtons, ...)
Angles are in degrees.

endheader
time	pelvis_tilt	pelvis_list	pelvis_rotation	pelvis_tx	pelvis_ty	pelvis_tz	hip_flexion_r	hip_adduction_r	hip_rotation_r	knee_angle_r	ankle_angle_r	subtalar_angle_r	mtp_angle_r	hip_flexion_l	hip_adduction_l	hip_rotation_l	knee_angle_l	ankle_angle_l	subtalar_angle_l	mtp_angle_l	lumbar_extension	lumbar_bending	lumbar_rotation
      1.25800000	     -1.60746198	      3.91706083	     -0.50407886	      0.22317931	      1.02867120	      0.27635738	     21.10771673	     -5.93764396	     -7.21955815	    -64.55797888	      2.31937727	     -8.94647699	      9.38617597	     10.11249172	      8.07731150	     -0.14180971	     -9.72561770	      4.26407058	     -5.79950678	      0.44319499	     -5.55969617	     -6.25983761	      1.09763995
      1.26216667	     -1.64011508	      3.78283739	     -0.54593763	      0.22820847	      1.02952437	      0.27609793	     21.64579627	     -5.77042207	     -7.16924205	    -63.99840692	      2.56753012	     -9.14536404	      9.32312036	      9.65044857	      7.94772575	     -0.12655615	     -9.36172884	      4.32233778	     -5.75712282	      0.43106623	     -5.54801669	     -6.05891461	      1.06736214
      1.26633333	     -1.64177610	      3.62818516	     -0.58277771	      0.23322599	      1.03041330	      0.27584420	     22.12465482	     -5.57411736	     -7.12401762	    -63.35421481	      2.68036698	     -9.41297283	      9.08747596	      9.14841505	      7.79936080	     -0.05890251	     -8.98561052	      4.38298299	     -5.74257498	      0.38437025	     -5.59675657	     -5.82838097	      1.02679184
      1.27050000	     -1.69547223	      3.50516295	     -0.62199035	      0.23822366	      1.03115009	      0.27559847	     22.66058257	     -5.40676515	     -7.05520787	    -62.70194487	      3.01050413	     -9.49374053	      6.21529357	      8.70787955	      7.68788018	      0.03149039	     -8.61298451	      4.39650743	     -5.84738784	     -0.23504585	     -5.57655658	     -5.64168921	      0.98359812
      1.27466667	     -1.72756447	      3.37241706	     -0.67210665	      0.24324604	      1.03189314	      0.27537686	     23.14793808	     -5.22262374	     -6.97974802	    -61.97057009	      3.21875001	     -9.61003113	      6.20765121	      8.26025533	      7.55508685	      0.00092000	     -8.27528317	      4.47247940	     -5.76485736	     -0.23697462	     -5.56174585	     -5.43919574	      0.96825188
      1.27883333	     -1.73949773	      3.23242155	     -0.71553617	      0.24824794	      1.03263763	      0.27516707	     23.59077966	     -5.02457088	     -6.90375135	    -61.17152811	      3.37446726	     -9.73079312	      6.19096229	      7.79242072	      7.41605135	      0.00084416	     -7.93967567	      4.55384412	     -5.69696817	     -0.24134841	     -5.58448376	     -5.22652955	      0.95379057
      1.28300000	     -1.75496766	      3.08638723	     -0.75493476	      0.25324264	      1.03334303	      0.27495784	     24.01637514	     -4.81595163	     -6.82554997	    -60.31286001	      3.49391122	     -9.84511141	      6.16644062	      7.33247203	      7.27184235	      0.01504404	     -7.61068804	      4.63342519	     -5.64987412	     -0.24831788	     -5.60713338	     -5.00903504	      0.93631329
      1.28716667	     -1.72609263	      2.93760238	     -0.78911035	      0.25821664	      1.03408542	      0.27476225	     24.36902487	     -4.60002152	     -6.74807331	    -59.38341084	      3.52944077	    -10.00035245	      6.10244216	      6.82241840	      7.12712058	      0.07178895	     -7.27503268	      4.71006976	     -5.62676757	     -0.26815784	     -5.70059937	     -4.81426370	      0.91446496
      1.29133333	     -1.76639990	      2.80814004	     -0.82423129	      0.26318932	      1.03463814	      0.27456121	     24.79030690	     -4.40255832	     -6.65416578	    -58.43218745	      3.63471253	    -10.06127996	      6.05772295	      6.40653058	      7.00182114	      0.09115380	     -6.97667858	      4.77556406	     -5.62029265	     -0.28327864	     -5.69296533	     -4.62608648	      0.89021579
      1.29550000	     -1.72289822	      2.68224839	     -0.85900210	      0.26815909	      1.03529368	      0.27436724	     25.09437603	     -4.21043703	     -6.56604234	    -57.41173261	      3.64846633	    -10.17997123	      5.96736739	      5.88372186	      6.88468455	      0.15989859	     -6.64267913	      4.84621902	     -5.63875083	     -0.31374560	     -5.79062771	     -4.44052984	      0.86225484
      1.29966667	     -1.75685817	      2.54917460	     -0.88338317	      0.27311911	      1.03577875	      0.27416898	     25.46328286	     -4.00609394	     -6.47454004	    -56.34515058	      3.69319753	    -10.23064544	      5.90305372	      5.47148303	      6.75692763	      0.20131386	     -6.36316535	      4.91312338	     -5.65496356	     -0.33582065	     -5.79394271	     -4.24801366	      0.83540831
      1.30383333	     -1.74214455	      2.44275150	     -0.91051114	      0.27807572	      1.03628478	      0.27397935	     25.76375859	     -3.83106597	     -6.37825817	    -55.23119746	      3.64587623	    -10.35960151	      5.78724923	      4.99156775	      6.66187988	      0.28932415	     -6.04858294	      4.97959527	     -5.70216128	     -0.37547888	     -5.85637525	     -4.08552231	      0.79934598
      1.30800000	     -1.75108703	      2.34284145	     -0.93108459	      0.28301645	      1.03668869	      0.27378959	     26.07238756	     -3.66209251	     -6.27897470	    -54.07520796	      3.60581932	    -10.45426213	      5.64712505	      4.55300864	      6.57364112	      0.37342727	     -5.76450422	      5.04110407	     -5.76848280	     -0.42507392	     -5.89276727	     -3.93239168	      0.75823439
      1.31216667	     -1.74998482	      2.24517252	     -0.94634715	      0.28795119	      1.03707007	      0.27359715	     26.34775881	     -3.49757299	     -6.18510446	    -52.86607833	      3.53701422	    -10.54944872	      5.49699257	      4.10925363	      6.48782351	      0.45533578	     -5.49037948	      5.10667028	     -5.82589979	     -0.47755518	     -5.94246328	     -3.78267605	      0.71481959
      1.31633333	     -1.75980224	      2.15604144	     -0.95532862	      0.29287646	      1.03737407	      0.27341055	     26.61575293	     -3.34257028	     -6.09319449	    -51.61104070	      3.43901706	    -10.65659624	      5.34143030	      3.68561077	      6.41054158	      0.54373763	     -5.23141242	      5.17717230	     -5.88542152	     -0.53104658	     -5.98012722	     -3.64168615	      0.66988913
      1.32050000	     -1.77135773	      2.08144076	     -0.95701533	      0.29780404	      1.03762038	      0.27321840	     26.86703090	     -3.20866027	     -6.01248123	    -50.31491141	      3.32062344	    -10.76396662	      5.18998202	      3.26874744	      6.34971010	      0.63027663	     -4.98155654	      5.25312901	     -5.94189221	     -0.58196551	     -6.00852922	     -3.52270400	      0.62078319
      1.32466667	     -1.78573579	      2.00325664	     -0.95141335	      0.30272937	      1.03782331	      0.27301968	     27.09471891	     -3.07159352	     -5.93558428	    -48.96128259	      3.16787541	    -10.89127452	      5.03262452	      2.86164857	      6.28526879	      0.72367931	     -4.74505791	      5.33062479	     -6.00119370	     -0.63422807	     -6.03741177	     -3.39537616	      0.56349216
